<svg width="37" height="37" viewBox="0 0 37 37" fill="none" xmlns="http://www.w3.org/2000/svg">
<path d="M15.7312 3.90343C17.1832 3.06511 18.9721 3.06511 20.4241 3.90343L29.9112 9.38077C31.3632 10.2191 32.2577 11.7684 32.2577 13.445V24.3997C32.2577 26.0763 31.3632 27.6256 29.9112 28.4639L20.4241 33.9412C18.9721 34.7796 17.1832 34.7796 15.7312 33.9412L6.24415 28.4639C4.79215 27.6256 3.89768 26.0763 3.89768 24.3997V13.445C3.89768 11.7684 4.79215 10.2191 6.24415 9.38077L15.7312 3.90343Z" stroke="#202020" stroke-width="2.95146"/>
<path fill-rule="evenodd" clip-rule="evenodd" d="M17.3949 21.063H10.3307L19.6701 11.1743L18.4816 16.5225H25.5458L16.2064 26.4113L17.3949 21.063Z" fill="#202020"/>
</svg>
